<?xml version="1.0" encoding="UTF-8"?>
<svg version="1.1" xmlns="http://www.w3.org/2000/svg" width="512" height="512">
<path d="M0 0 C0.62052246 0.44520996 1.24104492 0.89041992 1.88037109 1.34912109 C19.8569448 14.28577927 36.29553491 28.51003581 50 46 C50.77859375 46.96164063 51.5571875 47.92328125 52.359375 48.9140625 C90.31007396 96.65459144 106.40891897 157.79645894 99.875 218.1875 C98.30344695 231.04327133 95.49694604 243.53978524 92 256 C91.74766602 256.90024902 91.49533203 257.80049805 91.23535156 258.72802734 C78.80702873 301.7632945 51.26990582 342.3807286 16 370 C15.00355469 370.80179687 14.00710938 371.60359375 12.98046875 372.4296875 C-20.63935323 399.23425531 -61.46595053 415.01352339 -104 420 C-105.09570312 420.13148438 -106.19140625 420.26296875 -107.3203125 420.3984375 C-146.98198602 424.22998298 -187.15069198 417.20308659 -223.42578125 401.05078125 C-224.2142041 400.70225098 -225.00262695 400.3537207 -225.81494141 399.99462891 C-227.72741686 399.12407863 -229.6073668 398.18278658 -231.48046875 397.23046875 C-239.8390201 394.30822272 -247.7952807 396.4068705 -256.02734375 398.84375 C-258.14109865 399.43683051 -260.25503709 400.02925718 -262.36914062 400.62109375 C-265.64256051 401.55329037 -268.9134296 402.4929809 -272.1809082 403.44580078 C-288.93230892 408.30087423 -306.39429246 413.20019072 -323.13671875 405.60546875 C-333.97941537 399.52586669 -342.54892686 390.46799694 -346.25732422 378.39306641 C-349.83516263 362.0469789 -345.05525157 346.55869698 -340.5 330.9375 C-339.56276555 327.67556607 -338.63307874 324.41195229 -337.71813965 321.14369202 C-337.15332094 319.13066293 -336.57551433 317.1212124 -335.98205566 315.11643982 C-333.76916801 307.30338973 -332.28231845 299.32974921 -335.94140625 291.73046875 C-336.35688721 290.83320068 -336.77236816 289.93593262 -337.20043945 289.01147461 C-337.64991943 288.07956299 -338.09939941 287.14765137 -338.5625 286.1875 C-348.7569026 263.86300306 -355.53604633 240.46763294 -358 216 C-358.11085938 215.02289063 -358.22171875 214.04578125 -358.3359375 213.0390625 C-361.46069332 180.86252284 -357.7815755 147.48808056 -347 117 C-346.58363281 115.7728125 -346.16726563 114.545625 -345.73828125 113.28125 C-337.71861552 90.30527554 -326.058586 69.07778156 -311 50 C-310.31679688 49.1234375 -309.63359375 48.246875 -308.9296875 47.34375 C-300.28188669 36.49411061 -290.83681603 25.71532295 -280 17 C-278.93840994 16.11505354 -277.87725507 15.22958491 -276.81640625 14.34375 C-201.45734913 -47.95880517 -89.46385337 -57.94006536 0 0 Z M-264 48 C-264.57008789 48.54285645 -265.14017578 49.08571289 -265.72753906 49.64501953 C-274.30979909 57.87173517 -282.21170739 66.20159995 -289 76 C-289.44827148 76.64694824 -289.89654297 77.29389648 -290.35839844 77.96044922 C-297.15497305 87.88795106 -302.96088896 98.080505 -308 109 C-308.53238281 110.13695312 -309.06476563 111.27390625 -309.61328125 112.4453125 C-330.2745594 158.46604057 -331.70298533 212.34551518 -313.97314453 259.54980469 C-311.62988711 265.44968714 -309.05393555 271.25677492 -306.42700195 277.03515625 C-306.01281006 277.95425781 -305.59861816 278.87335938 -305.171875 279.8203125 C-304.6164502 281.03098389 -304.6164502 281.03098389 -304.04980469 282.26611328 C-296.93466152 300.79526984 -302.19607869 318.91402613 -307.5 337.1875 C-308.43588905 340.47035914 -309.3644881 343.75496252 -310.28186035 347.04304504 C-310.84868266 349.06877403 -311.42670513 351.09141556 -312.01794434 353.1101532 C-314.69696599 362.12189029 -314.69696599 362.12189029 -312.9765625 371.05859375 C-308.99511749 375.16681421 -308.99511749 375.16681421 -303.55200195 376.24023438 C-298.17772738 376.16473921 -293.29409475 374.65756775 -288.16796875 373.15625 C-286.0477533 372.5629893 -283.92730252 371.97056913 -281.80664062 371.37890625 C-278.51101447 370.44746477 -275.2179411 369.50883561 -271.92895508 368.55419922 C-247.5776982 361.52311183 -230.45611494 361.2583527 -207.21020508 371.85644531 C-191.7481174 378.81011525 -175.72671305 383.35857754 -159 386 C-158.26249512 386.11714355 -157.52499023 386.23428711 -156.76513672 386.35498047 C-105.90774346 394.03781451 -53.30081137 379.9796913 -12.09423828 349.59472656 C-5.84218262 344.89405346 0.24183675 340.10230353 5.62890625 334.40625 C7 333 7 333 9.5 331.0625 C13.11721274 328.07829949 15.98147497 324.57642362 19 321 C19.76570313 320.12214844 20.53140625 319.24429687 21.3203125 318.33984375 C27.91836618 310.65590349 33.64729452 302.59518886 39 294 C39.3801123 293.39236816 39.76022461 292.78473633 40.15185547 292.15869141 C67.54011674 247.7077216 74.23446945 193.95742939 62.40625 143.5703125 C55.89469441 117.13520558 43.97166752 92.29837629 27 71 C26.37480469 70.17113281 25.74960937 69.34226562 25.10546875 68.48828125 C-6.65742448 27.57867715 -54.50315427 1.56355936 -105.625 -4.875 C-163.81928164 -11.35002438 -221.55892034 7.56544702 -264 48 Z " fill="#252A1C" transform="translate(385,65)"/>
<path d="M0 0 C3.13153292 2.59976318 5.35405814 4.91560863 6.86328125 8.734375 C7.05619225 11.22219508 7.1418315 13.5974103 7.13070679 16.08444214 C7.1352379 16.82683297 7.13976901 17.56922381 7.14443743 18.33411133 C7.15710242 20.82290174 7.15545973 23.3114739 7.15380859 25.80029297 C7.15979253 27.58423138 7.16659776 29.3681672 7.17416382 31.15209961 C7.19184452 35.99923229 7.19652006 40.84629437 7.19779539 45.69345617 C7.19969396 49.73921332 7.20705099 53.784954 7.21413958 57.83070481 C7.23042891 67.37558903 7.23530803 76.92043551 7.23388672 86.46533203 C7.23268504 96.31288107 7.25379086 106.16021102 7.28537405 116.00770462 C7.31152104 124.46132275 7.32225468 132.91486926 7.3209759 141.36852753 C7.32046581 146.41796258 7.32617478 151.46720296 7.347332 156.51659775 C7.36668788 161.26580091 7.36685703 166.01462317 7.35229874 170.76383972 C7.35020626 172.50611553 7.35493763 174.24841501 7.36701965 175.99065018 C7.38245668 178.37099508 7.37317538 180.75002401 7.35775757 183.13034058 C7.36804469 183.81828764 7.37833182 184.5062347 7.38893068 185.21502864 C7.30211236 191.28878162 4.72521455 194.70815347 0.73828125 199.046875 C-3.44636967 201.50308315 -7.32308341 201.91516882 -12.13671875 201.734375 C-18.04312673 200.08832687 -20.66146333 197.53840455 -24.13671875 192.734375 C-25.60396298 189.79988654 -25.28473921 186.84190164 -25.28388977 183.62481689 C-25.28756646 182.88413491 -25.29124315 182.14345293 -25.29503125 181.38032603 C-25.30609046 178.88537971 -25.30991571 176.390475 -25.3137207 173.89550781 C-25.31998368 172.11186591 -25.32663033 170.32822533 -25.33363342 168.54458618 C-25.35105887 163.68908925 -25.36159945 158.83360217 -25.36983895 153.9780817 C-25.37498598 150.94576152 -25.38106185 147.91344442 -25.38735008 144.8811264 C-25.40640671 135.39735263 -25.42063668 125.91358666 -25.42896205 116.42979741 C-25.43873635 105.47568809 -25.46505896 94.52178073 -25.50546294 83.56774259 C-25.53560606 75.10568101 -25.55042922 66.64367737 -25.55374306 58.18156314 C-25.55609567 53.12537863 -25.56508338 48.06940978 -25.59020424 43.01328278 C-25.6134583 38.25591554 -25.61772893 33.49890634 -25.60744286 28.74149704 C-25.60694673 26.99599137 -25.61328976 25.25046823 -25.6269989 23.50501633 C-25.64468062 21.12020367 -25.63763093 18.7366811 -25.62446594 16.35186768 C-25.63543519 15.66255637 -25.64640443 14.97324507 -25.65770608 14.26304555 C-25.59192676 9.3209808 -24.18576243 6.56178811 -21.13671875 2.734375 C-15.23107767 -2.728343 -7.25386165 -4.29662006 0 0 Z " fill="#252A1C" transform="translate(265.13671875,156.265625)"/>
<path d="M0 0 C5.50498089 1.93693772 8.42942682 4.96499482 11.09121704 10.10868835 C12.33716059 14.07268334 12.29504121 17.75384431 12.29052734 21.88598633 C12.29724457 22.77119461 12.30396179 23.65640289 12.31088257 24.56843567 C12.32985258 27.48969159 12.33378638 30.4107176 12.3359375 33.33203125 C12.34236649 35.36838372 12.34909493 37.40473527 12.35610962 39.44108582 C12.36808016 43.70887391 12.37179071 47.97658107 12.37060547 52.24438477 C12.37040238 57.7018309 12.39769514 63.1587557 12.43214989 68.61607838 C12.45443452 72.82238631 12.45844251 77.02856913 12.45738602 81.23493004 C12.45973997 83.24629194 12.46855188 85.25765739 12.48405075 87.26896095 C12.50374063 90.08828395 12.49786072 92.90648741 12.48583984 95.72583008 C12.49707886 96.54948059 12.50831787 97.3731311 12.51989746 98.22174072 C12.45850434 103.91446013 11.17610882 108.23656383 8 113 C3.11883485 117.64305954 -0.96700606 118.35728013 -7.49609375 118.28125 C-12.45046555 117.7247527 -15.13925306 114.97706409 -18.3125 111.375 C-21.43336896 106.98266591 -21.16101007 103.29560965 -21.17700195 98.05566406 C-21.18357315 97.12866699 -21.19014435 96.20166992 -21.19691467 95.24658203 C-21.21667356 92.16959559 -21.22831645 89.09265802 -21.23828125 86.015625 C-21.24235678 84.96582207 -21.2464323 83.91601913 -21.25063133 82.83440399 C-21.27150379 77.27729996 -21.28580004 71.72022071 -21.29516602 66.16308594 C-21.30622884 60.42178272 -21.34062417 54.68086724 -21.38033772 48.93970108 C-21.40648018 44.5267464 -21.41485579 40.11388438 -21.41844749 35.70085907 C-21.4233201 33.58456556 -21.43495318 31.46827638 -21.45348549 29.35205841 C-21.47782456 26.38836446 -21.47692122 23.42567729 -21.4699707 20.46191406 C-21.48278076 19.58895691 -21.49559082 18.71599976 -21.50878906 17.81658936 C-21.46240579 12.38513832 -20.60578216 9.31263908 -17 5 C-11.3010612 -0.0204937 -7.46345948 -0.63152349 0 0 Z " fill="#252A1C" transform="translate(346,197)">
</path>
<path d="M0 0 C4.98669007 2.49334503 8.49675474 5.99350949 11 11 C11.11440763 13.98876134 11.16787795 16.95473851 11.17700195 19.94433594 C11.18685875 21.33483154 11.18685875 21.33483154 11.19691467 22.75341797 C11.21667356 25.83040441 11.22831645 28.90734198 11.23828125 31.984375 C11.24235678 33.03417793 11.2464323 34.08398087 11.25063133 35.16559601 C11.27150379 40.72270004 11.28580004 46.27977929 11.29516602 51.83691406 C11.30622884 57.57821728 11.34062417 63.31913276 11.38033772 69.06029892 C11.40648018 73.4732536 11.41485579 77.88611562 11.41844749 82.29914093 C11.4233201 84.41543444 11.43495318 86.53172362 11.45348549 88.64794159 C11.47782456 91.61163554 11.47692122 94.57432271 11.4699707 97.53808594 C11.48278076 98.41104309 11.49559082 99.28400024 11.50878906 100.18341064 C11.46240579 105.61486168 10.60578216 108.68736092 7 113 C1.97164967 117.4297372 -0.88165291 118.30016588 -7.4609375 118.21484375 C-12.22952172 117.81134816 -15.01430203 116.04045896 -18.25 112.625 C-21.93595827 107.0960626 -22.29759364 102.58273309 -22.29052734 96.11401367 C-22.29724457 95.22880539 -22.30396179 94.34359711 -22.31088257 93.43156433 C-22.32985258 90.51030841 -22.33378638 87.5892824 -22.3359375 84.66796875 C-22.34236649 82.63161628 -22.34909493 80.59526473 -22.35610962 78.55891418 C-22.36808016 74.29112609 -22.37179071 70.02341893 -22.37060547 65.75561523 C-22.37040238 60.2981691 -22.39769514 54.8412443 -22.43214989 49.38392162 C-22.45443452 45.17761369 -22.45844251 40.97143087 -22.45738602 36.76506996 C-22.45973997 34.75370806 -22.46855188 32.74234261 -22.48405075 30.73103905 C-22.50374063 27.91171605 -22.49786072 25.09351259 -22.48583984 22.27416992 C-22.49707886 21.45051941 -22.50831787 20.6268689 -22.51989746 19.77825928 C-22.45850434 14.08553987 -21.17610882 9.76343617 -18 5 C-12.5585873 -0.17597793 -7.26297132 -0.81580957 0 0 Z " fill="#252A1C" transform="translate(176,197)"/>
</svg>
